# xmcd
#
# Track frame offsets: 
#        150
#        14046
#        24523
#        35542
#        48249
#        62686
#        86599
#        106392
#        121594
#        137768
#        152994
#
# Disc length: 2231 seconds
#
# Revision: 0
# Processed by: cddbd v1.5.2PL0 Copyright (c) Steve Scherf et al.
# Submitted via: ExactAudioCopy v0.99pb3
#
DISCID=8b08b50b
DTITLE=Mary Mary - A Mary Mary Christmas
DYEAR=2006
DGENRE=Gospel
TTITLE0='Tis The Season
TTITLE1=Only One
TTITLE2=Merry Little Christmas
TTITLE3=O Come All Ye Faithful
TTITLE4=California Christmas
TTITLE5=Still The Lamb
TTITLE6=Call Him Jesus
TTITLE7=The Real Thing
TTITLE8=Hark The Herald Angels Sing
TTITLE9=Carol Of The Bells
TTITLE10=California Christmas (Remix)
EXTD=
EXTT0=
EXTT1=
EXTT2=
EXTT3=
EXTT4=
EXTT5=
EXTT6=
EXTT7=
EXTT8=
EXTT9=
EXTT10=
PLAYORDER=
